# xmcd CD database file
#
# Track frame offsets:
#	183
#	15633
#	28008
#	40595
#	54615
#	69310
#	81685
#	96515
#	109865
#	122785
#	135145
#	148168
#	162613
#	174470
#	190683
#	205673
#	217865
#	230185
#	243868
#	259038
#	272450
#	287390
#	301410
#	315315
#	329703
#
# Disc length: 4547 seconds
#
# Revision: 0
# Processed by: cddbd v1.5.2PL0 Copyright (c) Steve Scherf et al.
# Submitted via: CDex 1.70beta2
#
DISCID=6611c119
DTITLE=Fats Waller - The Complete Fats Waller and his Rhythm 1934-1943 Volume 1
DYEAR=1992
DGENRE=Jazz
TTITLE0=A porter's love song to a chambermaid
TTITLE1=I wish I were twins
TTITLE2=I wish I were twins
TTITLE3=Armful of sweetness
TTITLE4=Do me a favor
TTITLE5=Georgia May
TTITLE6=Then I'll be tired of you
TTITLE7=Don't let in bother you
TTITLE8=Have a little dream on me
TTITLE9=Serenade for a wealthy widow
TTITLE10=How can you face me
TTITLE11=Sweetie pie
TTITLE12=Mandy
TTITLE13=Let's pretend there's a moon
TTITLE14=You're not the only oyster in the stew
TTITLE15=Honeysuckle rose
TTITLE16=Believe it, beloved
TTITLE17=Dream man
TTITLE18=I'm growing fonder of you
TTITLE19=If it isn't love
TTITLE20=Breakin' the ice
TTITLE21=I'm a hundred per cent for you
TTITLE22=I'm a hundred per cent for you
TTITLE23=Baby Brown
TTITLE24=Baby Brown
EXTD=YEAR: 1992
EXTT0=
EXTT1=
EXTT2=
EXTT3=
EXTT4=
EXTT5=
EXTT6=
EXTT7=
EXTT8=
EXTT9=
EXTT10=
EXTT11=
EXTT12=
EXTT13=
EXTT14=
EXTT15=
EXTT16=
EXTT17=
EXTT18=
EXTT19=
EXTT20=
EXTT21=
EXTT22=
EXTT23=
EXTT24=
PLAYORDER=
